<svg xmlns="http://www.w3.org/2000/svg" width="256" height="256" viewBox="0 0 256 256">
  <defs>
    <pattern id="baseNoise" width="32" height="32" patternUnits="userSpaceOnUse">
      <rect width="32" height="32" fill="#5a6068"/>
      <circle cx="4" cy="6" r="1.2" fill="#6d747c" opacity="0.8"/>
      <circle cx="14" cy="10" r="0.9" fill="#3f454c" opacity="0.9"/>
      <circle cx="22" cy="5" r="1.1" fill="#70767e" opacity="0.65"/>
      <circle cx="28" cy="16" r="1.0" fill="#3b4047" opacity="0.8"/>
      <circle cx="8" cy="20" r="0.9" fill="#757c85" opacity="0.65"/>
      <circle cx="18" cy="24" r="1.0" fill="#41464d" opacity="0.9"/>
      <circle cx="27" cy="28" r="1.1" fill="#777e86" opacity="0.55"/>
      <path d="M0 14L32 10M-2 30L12 28M18 2L34 0" stroke="#808791" stroke-width="0.7" opacity="0.18"/>
      <path d="M0 0L7 5M20 15L32 22M10 32L20 26" stroke="#24292f" stroke-width="0.6" opacity="0.25"/>
    </pattern>
    <pattern id="fineSpeckle" width="16" height="16" patternUnits="userSpaceOnUse">
      <rect width="16" height="16" fill="none"/>
      <circle cx="2" cy="3" r="0.6" fill="#8b939e" opacity="0.25"/>
      <circle cx="7" cy="4" r="0.5" fill="#2d3238" opacity="0.35"/>
      <circle cx="11" cy="10" r="0.6" fill="#8f97a2" opacity="0.22"/>
      <circle cx="14" cy="6" r="0.5" fill="#2d3238" opacity="0.28"/>
      <circle cx="5" cy="13" r="0.5" fill="#939ba5" opacity="0.2"/>
    </pattern>
    <linearGradient id="shade" x1="0" y1="0" x2="1" y2="1">
      <stop offset="0%" stop-color="#656b73" stop-opacity="0.12"/>
      <stop offset="55%" stop-color="#000000" stop-opacity="0"/>
      <stop offset="100%" stop-color="#000000" stop-opacity="0.18"/>
    </linearGradient>
  </defs>
  <rect width="256" height="256" fill="url(#baseNoise)"/>
  <rect width="256" height="256" fill="url(#fineSpeckle)"/>
  <rect width="256" height="256" fill="url(#shade)"/>
</svg>
