<svg xmlns="http://www.w3.org/2000/svg" width="256" height="256" viewBox="0 0 256 256">
  <defs>
    <pattern id="grassBase" width="32" height="32" patternUnits="userSpaceOnUse">
      <rect width="32" height="32" fill="#7fbe4c"/>
      <path d="M2 30L4 20L6 30M10 30L11 18L14 30M20 30L22 17L25 30M28 30L29 22L31 30"
            stroke="#6ba43d" stroke-width="1.3" stroke-linecap="round" fill="none" opacity="0.75"/>
      <path d="M0 10C6 8 11 13 16 11C21 9 25 12 32 9V13C26 16 21 13 16 15C11 17 6 14 0 16Z"
            fill="#9cd663" opacity="0.5"/>
      <circle cx="5" cy="6" r="1.2" fill="#5f9133" opacity="0.4"/>
      <circle cx="14" cy="8" r="0.9" fill="#b8eb7e" opacity="0.35"/>
      <circle cx="23" cy="5" r="1.0" fill="#5a8b31" opacity="0.35"/>
      <circle cx="26" cy="14" r="1.1" fill="#b4e479" opacity="0.28"/>
    </pattern>
    <pattern id="tufts" width="64" height="64" patternUnits="userSpaceOnUse">
      <rect width="64" height="64" fill="none"/>
      <ellipse cx="10" cy="18" rx="5" ry="3" fill="#5e8f33" opacity="0.28"/>
      <ellipse cx="28" cy="42" rx="7" ry="4" fill="#629437" opacity="0.22"/>
      <ellipse cx="50" cy="20" rx="8" ry="4" fill="#a8db6f" opacity="0.18"/>
      <ellipse cx="44" cy="53" rx="6" ry="3.5" fill="#557f2f" opacity="0.22"/>
      <ellipse cx="16" cy="56" rx="8" ry="4" fill="#abd973" opacity="0.16"/>
    </pattern>
    <linearGradient id="sunTint" x1="0" y1="0" x2="0" y2="1">
      <stop offset="0%" stop-color="#d5ff9f" stop-opacity="0.07"/>
      <stop offset="100%" stop-color="#2c4a18" stop-opacity="0.08"/>
    </linearGradient>
  </defs>
  <rect width="256" height="256" fill="url(#grassBase)"/>
  <rect width="256" height="256" fill="url(#tufts)"/>
  <rect width="256" height="256" fill="url(#sunTint)"/>
</svg>
